# 3ds Max Wavefront OBJ Exporter v0.99 - (c)2007 guruware
# File Created: 27.02.2023 16:56:24

mtllib sign6.mtl

#
# object leg
#

v  0.0020 0.0076 0.0058
v  692.5907 252.0893 0.0058
v  737.0395 0.0076 0.0058
v  692.5905 -252.0745 0.0058
v  564.6055 473.7662 0.0058
v  692.5907 252.0891 3537.7856
v  564.6052 -473.7513 0.0058
v  737.0395 0.0075 3537.7856
v  368.5208 638.3008 0.0058
v  564.6055 473.7661 3537.7856
v  368.5204 -638.2858 0.0057
v  692.5905 -252.0747 3537.7856
v  127.9872 725.8478 0.0058
v  368.5208 638.3007 3537.7856
v  692.5907 252.0890 7075.5654
v  564.6055 473.7659 7075.5654
v  127.9869 -725.8327 0.0057
v  564.6052 -473.7515 3537.7856
v  737.0395 0.0073 7075.5654
v  -127.9833 725.8478 0.0058
v  127.9872 725.8477 3537.7856
v  368.5208 638.3005 7075.5654
v  -127.9835 -725.8326 0.0057
v  368.5204 -638.2859 3537.7856
v  692.5905 -252.0748 7075.5654
v  -368.5167 638.3008 0.0058
v  -127.9833 725.8477 3537.7856
v  127.9872 725.8475 7075.5654
v  692.5907 252.0888 10613.3457
v  564.6055 473.7657 10613.3457
v  368.5208 638.3004 10613.3457
v  -368.5169 -638.2855 0.0057
v  127.9869 -725.8329 3537.7856
v  564.6052 -473.7516 7075.5654
v  737.0395 0.0072 10613.3457
v  -564.6014 473.7662 0.0058
v  -368.5167 638.3006 3537.7856
v  -127.9833 725.8475 7075.5654
v  127.9872 725.8474 10613.3457
v  -564.6016 -473.7508 0.0058
v  -127.9835 -725.8328 3537.7856
v  368.5204 -638.2861 7075.5654
v  692.5905 -252.0750 10613.3457
v  -692.5867 252.0893 0.0058
v  -564.6014 473.7661 3537.7856
v  -368.5167 638.3005 7075.5654
v  -127.9833 725.8474 10613.3457
v  692.5907 252.0887 14151.1250
v  564.6055 473.7656 14151.1250
v  368.5208 638.3002 14151.1250
v  127.9872 725.8472 14151.1250
v  -692.5867 -252.0739 0.0058
v  -368.5169 -638.2856 3537.7856
v  127.9869 -725.8330 7075.5654
v  564.6052 -473.7518 10613.3457
v  737.0395 0.0070 14151.1250
v  -737.0355 0.0077 0.0058
v  -692.5867 252.0892 3537.7856
v  -564.6014 473.7659 7075.5654
v  -368.5167 638.3003 10613.3457
v  -127.9833 725.8472 14151.1250
v  -564.6016 -473.7510 3537.7856
v  -127.9835 -725.8329 7075.5654
v  368.5204 -638.2863 10613.3457
v  692.5905 -252.0752 14151.1250
v  -737.0355 0.0076 3537.7856
v  -692.5867 252.0890 7075.5654
v  -564.6014 473.7657 10613.3457
v  -368.5167 638.3002 14151.1250
v  692.5907 252.0885 17688.9063
v  564.6055 473.7654 17688.9063
v  368.5208 638.3000 17688.9063
v  127.9872 725.8470 17688.9063
v  -127.9833 725.8470 17688.9063
v  -692.5867 -252.0741 3537.7856
v  -368.5169 -638.2858 7075.5654
v  127.9869 -725.8332 10613.3457
v  564.6052 -473.7519 14151.1250
v  737.0395 0.0068 17688.9063
v  -737.0355 0.0074 7075.5654
v  -692.5867 252.0889 10613.3457
v  -564.6014 473.7656 14151.1250
v  -368.5167 638.3000 17688.9063
v  -564.6016 -473.7511 7075.5654
v  -127.9835 -725.8331 10613.3457
v  368.5204 -638.2864 14151.1250
v  692.5905 -252.0753 17688.9063
v  -692.5867 -252.0742 7075.5654
v  -737.0355 0.0073 10613.3457
v  -692.5867 252.0887 14151.1250
v  -564.6014 473.7654 17688.9063
v  0.0020 0.0068 17688.9063
v  -368.5169 -638.2859 10613.3457
v  127.9869 -725.8333 14151.1250
v  564.6052 -473.7521 17688.9063
v  -692.5867 -252.0744 10613.3457
v  -737.0355 0.0071 14151.1250
v  -692.5867 252.0886 17688.9063
v  -564.6016 -473.7513 10613.3457
v  -127.9835 -725.8332 14151.1250
v  368.5204 -638.2866 17688.9063
v  -692.5867 -252.0745 14151.1250
v  -737.0355 0.0070 17688.9063
v  -368.5169 -638.2861 14151.1250
v  127.9869 -725.8335 17688.9063
v  -564.6016 -473.7514 14151.1250
v  -692.5867 -252.0747 17688.9063
v  -127.9835 -725.8334 17688.9063
v  -564.6016 -473.7516 17688.9063
v  -368.5169 -638.2863 17688.9063
v  966.3984 5740.3760 17688.9160
v  966.3984 5740.3760 25059.2910
v  966.3984 -6052.2246 25059.2910
v  966.3984 -6052.2246 17688.9160
v  -737.0282 -5896.2944 25059.2891
v  -737.0282 -5896.2944 17688.9141
v  -737.0282 5896.3052 17688.9141
v  -737.0282 5896.3052 25059.2891
# 118 vertices

vn 0.0000 0.0000 -1.0000
vn 0.6975 0.2539 -0.6701
vn 0.7423 0.0000 -0.6701
vn 0.6976 -0.2539 -0.6700
vn 0.5687 0.4772 -0.6700
vn 0.9397 0.3420 0.0000
vn 0.5686 -0.4771 -0.6701
vn 1.0000 -0.0000 -0.0000
vn 0.3712 0.6429 -0.6700
vn 0.7660 0.6428 0.0000
vn 0.3712 -0.6429 -0.6700
vn 0.9397 -0.3420 -0.0000
vn 0.1289 0.7310 -0.6701
vn 0.5000 0.8660 0.0000
vn 0.1289 -0.7311 -0.6700
vn 0.7661 -0.6428 -0.0000
vn -0.1289 0.7311 -0.6700
vn 0.1736 0.9848 0.0000
vn -0.1289 -0.7311 -0.6700
vn 0.5000 -0.8660 -0.0000
vn -0.3712 0.6429 -0.6700
vn -0.1736 0.9848 0.0000
vn -0.3712 -0.6429 -0.6700
vn 0.1736 -0.9848 -0.0000
vn -0.5687 0.4772 -0.6700
vn -0.5000 0.8660 0.0000
vn -0.5687 -0.4772 -0.6700
vn -0.1736 -0.9848 -0.0000
vn -0.6975 0.2539 -0.6701
vn -0.7660 0.6428 0.0000
vn -0.6976 -0.2539 -0.6700
vn -0.5000 -0.8660 -0.0000
vn -0.7423 -0.0000 -0.6701
vn -0.9397 0.3420 0.0000
vn -0.7660 -0.6428 -0.0000
vn -1.0000 -0.0000 0.0000
vn 0.6976 0.2539 0.6700
vn 0.5687 0.4772 0.6700
vn 0.3712 0.6428 0.6701
vn 0.1289 0.7311 0.6700
vn -0.1289 0.7311 0.6700
vn -0.9397 -0.3420 -0.0000
vn 0.7423 -0.0000 0.6701
vn -0.3712 0.6429 0.6700
vn 0.6975 -0.2539 0.6701
vn -0.5686 0.4772 0.6701
vn 0.0000 -0.0000 1.0000
vn 0.5687 -0.4772 0.6700
vn -0.6975 0.2539 0.6701
vn 0.3711 -0.6429 0.6701
vn -0.7423 0.0000 0.6700
vn 0.1289 -0.7311 0.6700
vn -0.6976 -0.2539 0.6700
vn -0.1289 -0.7311 0.6700
vn -0.5687 -0.4772 0.6700
vn -0.3712 -0.6429 0.6700
vn 0.6005 0.5480 -0.5823
vn 0.6005 0.5480 0.5823
vn 0.5526 -0.6055 0.5727
vn 0.5526 -0.6055 -0.5727
vn -0.6005 -0.5480 0.5823
vn -0.6005 -0.5480 -0.5823
vn -0.5526 0.6055 -0.5727
vn -0.5526 0.6055 0.5727
# 64 vertex normals

vt 0.5000 0.0000 0.0000
vt 0.8056 0.0000 1.0000
vt 0.7500 0.0000 1.0000
vt 0.6944 0.0000 1.0000
vt 0.8611 0.0000 1.0000
vt 0.8056 0.2000 1.0000
vt 0.6389 0.0000 1.0000
vt 0.7500 0.2000 1.0000
vt 0.9167 0.0000 1.0000
vt 0.8611 0.2000 1.0000
vt 0.5833 0.0000 1.0000
vt 0.6944 0.2000 1.0000
vt 0.9722 0.0000 1.0000
vt 0.9167 0.2000 1.0000
vt 0.8056 0.4000 1.0000
vt 0.8611 0.4000 1.0000
vt 0.5278 0.0000 1.0000
vt 0.6389 0.2000 1.0000
vt 0.7500 0.4000 1.0000
vt 0.0278 0.0000 1.0000
vt -0.0278 0.0000 1.0000
vt 0.9722 0.2000 1.0000
vt 0.9167 0.4000 1.0000
vt 0.4722 0.0000 1.0000
vt 0.5833 0.2000 1.0000
vt 0.6944 0.4000 1.0000
vt 0.0833 0.0000 1.0000
vt 0.0278 0.2000 1.0000
vt -0.0278 0.2000 1.0000
vt 0.9722 0.4000 1.0000
vt 0.8056 0.6000 1.0000
vt 0.8611 0.6000 1.0000
vt 0.9167 0.6000 1.0000
vt 0.4167 0.0000 1.0000
vt 0.5278 0.2000 1.0000
vt 0.6389 0.4000 1.0000
vt 0.7500 0.6000 1.0000
vt 0.1389 0.0000 1.0000
vt 0.0833 0.2000 1.0000
vt 0.0278 0.4000 1.0000
vt -0.0278 0.4000 1.0000
vt 0.9722 0.6000 1.0000
vt 0.3611 0.0000 1.0000
vt 0.4722 0.2000 1.0000
vt 0.5833 0.4000 1.0000
vt 0.6944 0.6000 1.0000
vt 0.1944 0.0000 1.0000
vt 0.1389 0.2000 1.0000
vt 0.0833 0.4000 1.0000
vt 0.0278 0.6000 1.0000
vt -0.0278 0.6000 1.0000
vt 0.8056 0.8000 1.0000
vt 0.8611 0.8000 1.0000
vt 0.9167 0.8000 1.0000
vt 0.9722 0.8000 1.0000
vt 0.3056 0.0000 1.0000
vt 0.4167 0.2000 1.0000
vt 0.5278 0.4000 1.0000
vt 0.6389 0.6000 1.0000
vt 0.7500 0.8000 1.0000
vt 0.2500 0.0000 1.0000
vt 0.1944 0.2000 1.0000
vt 0.1389 0.4000 1.0000
vt 0.0833 0.6000 1.0000
vt 0.0278 0.8000 1.0000
vt -0.0278 0.8000 1.0000
vt 0.3611 0.2000 1.0000
vt 0.4722 0.4000 1.0000
vt 0.5833 0.6000 1.0000
vt 0.6944 0.8000 1.0000
vt 0.2500 0.2000 1.0000
vt 0.1944 0.4000 1.0000
vt 0.1389 0.6000 1.0000
vt 0.0833 0.8000 1.0000
vt 0.8056 1.0000 1.0000
vt 0.8611 1.0000 1.0000
vt 0.9167 1.0000 1.0000
vt 0.9722 1.0000 1.0000
vt 0.0278 1.0000 1.0000
vt 0.3056 0.2000 1.0000
vt 0.4167 0.4000 1.0000
vt 0.5278 0.6000 1.0000
vt 0.6389 0.8000 1.0000
vt 0.7500 1.0000 1.0000
vt 0.2500 0.4000 1.0000
vt 0.1944 0.6000 1.0000
vt 0.1389 0.8000 1.0000
vt 0.0833 1.0000 1.0000
vt -0.0278 1.0000 1.0000
vt 0.3611 0.4000 1.0000
vt 0.4722 0.6000 1.0000
vt 0.5833 0.8000 1.0000
vt 0.6944 1.0000 1.0000
vt 0.3056 0.4000 1.0000
vt 0.2500 0.6000 1.0000
vt 0.1944 0.8000 1.0000
vt 0.1389 1.0000 1.0000
vt 0.5000 1.0000 0.0000
vt 0.4167 0.6000 1.0000
vt 0.5278 0.8000 1.0000
vt 0.6389 1.0000 1.0000
vt 0.3056 0.6000 1.0000
vt 0.2500 0.8000 1.0000
vt 0.1944 1.0000 1.0000
vt 0.3611 0.6000 1.0000
vt 0.4722 0.8000 1.0000
vt 0.5833 1.0000 1.0000
vt 0.3056 0.8000 1.0000
vt 0.2500 1.0000 1.0000
vt 0.4167 0.8000 1.0000
vt 0.5278 1.0000 1.0000
vt 0.3611 0.8000 1.0000
vt 0.3056 1.0000 1.0000
vt 0.4722 1.0000 1.0000
vt 0.3611 1.0000 1.0000
vt 0.4167 1.0000 1.0000
vt 1.0000 1.0000 0.0000
vt 0.0000 1.0000 0.0000
vt 0.0000 0.0000 0.0000
vt 1.0000 0.0000 0.0000
# 120 texture coords

o leg
g leg
usemtl wire_008110135
s 1
f 1/1/1 2/2/2 3/3/3 
f 1/1/1 3/3/3 4/4/4 
f 1/1/1 5/5/5 2/2/2 
s 8
f 3/3/3 2/2/2 6/6/6 
s 1
f 1/1/1 4/4/4 7/7/7 
s 8
f 4/4/4 3/3/3 8/8/8 
s 1
f 1/1/1 9/9/9 5/5/5 
s 8
f 2/2/2 5/5/5 10/10/10 
f 3/3/3 6/6/6 8/8/8 
f 2/2/2 10/10/10 6/6/6 
s 1
f 1/1/1 7/7/7 11/11/11 
s 8
f 7/7/7 4/4/4 12/12/12 
f 4/4/4 8/8/8 12/12/12 
s 1
f 1/1/1 13/13/13 9/9/9 
s 8
f 5/5/5 9/9/9 14/14/14 
f 5/5/5 14/14/14 10/10/10 
f 8/8/8 6/6/6 15/15/6 
f 6/6/6 10/10/10 16/16/10 
s 1
f 1/1/1 11/11/11 17/17/15 
s 8
f 11/11/11 7/7/7 18/18/16 
f 7/7/7 12/12/12 18/18/16 
f 12/12/12 8/8/8 19/19/8 
s 1
f 1/1/1 20/20/17 13/21/13 
s 8
f 9/9/9 13/13/13 21/22/18 
f 9/9/9 21/22/18 14/14/14 
f 10/10/10 14/14/14 22/23/14 
f 8/8/8 15/15/6 19/19/8 
f 6/6/6 16/16/10 15/15/6 
f 10/10/10 22/23/14 16/16/10 
s 1
f 1/1/1 17/17/15 23/24/19 
s 8
f 17/17/15 11/11/11 24/25/20 
f 11/11/11 18/18/16 24/25/20 
f 18/18/16 12/12/12 25/26/12 
f 12/12/12 19/19/8 25/26/12 
s 1
f 1/1/1 26/27/21 20/20/17 
s 8
f 13/21/13 20/20/17 27/28/22 
f 13/21/13 27/28/22 21/29/18 
f 14/14/14 21/22/18 28/30/18 
f 14/14/14 28/30/18 22/23/14 
f 19/19/8 15/15/6 29/31/6 
f 15/15/6 16/16/10 30/32/10 
f 16/16/10 22/23/14 31/33/14 
s 1
f 1/1/1 23/24/19 32/34/23 
s 8
f 23/24/19 17/17/15 33/35/24 
f 17/17/15 24/25/20 33/35/24 
f 24/25/20 18/18/16 34/36/16 
f 18/18/16 25/26/12 34/36/16 
f 25/26/12 19/19/8 35/37/8 
s 1
f 1/1/1 36/38/25 26/27/21 
s 8
f 20/20/17 26/27/21 37/39/26 
f 20/20/17 37/39/26 27/28/22 
f 21/29/18 27/28/22 38/40/22 
f 21/29/18 38/40/22 28/41/18 
f 22/23/14 28/30/18 39/42/18 
f 19/19/8 29/31/6 35/37/8 
f 15/15/6 30/32/10 29/31/6 
f 16/16/10 31/33/14 30/32/10 
f 22/23/14 39/42/18 31/33/14 
s 1
f 1/1/1 32/34/23 40/43/27 
s 8
f 32/34/23 23/24/19 41/44/28 
f 23/24/19 33/35/24 41/44/28 
f 33/35/24 24/25/20 42/45/20 
f 24/25/20 34/36/16 42/45/20 
f 34/36/16 25/26/12 43/46/12 
f 25/26/12 35/37/8 43/46/12 
s 1
f 1/1/1 44/47/29 36/38/25 
s 8
f 26/27/21 36/38/25 45/48/30 
f 26/27/21 45/48/30 37/39/26 
f 27/28/22 37/39/26 46/49/26 
f 27/28/22 46/49/26 38/40/22 
f 28/41/18 38/40/22 47/50/22 
f 28/41/18 47/50/22 39/51/18 
f 35/37/8 29/31/6 48/52/6 
f 29/31/6 30/32/10 49/53/10 
f 30/32/10 31/33/14 50/54/14 
f 31/33/14 39/42/18 51/55/18 
s 1
f 1/1/1 40/43/27 52/56/31 
s 8
f 40/43/27 32/34/23 53/57/32 
f 32/34/23 41/44/28 53/57/32 
f 41/44/28 33/35/24 54/58/24 
f 33/35/24 42/45/20 54/58/24 
f 42/45/20 34/36/16 55/59/16 
f 34/36/16 43/46/12 55/59/16 
f 43/46/12 35/37/8 56/60/8 
s 1
f 1/1/1 57/61/33 44/47/29 
s 8
f 36/38/25 44/47/29 58/62/34 
f 36/38/25 58/62/34 45/48/30 
f 37/39/26 45/48/30 59/63/30 
f 37/39/26 59/63/30 46/49/26 
f 38/40/22 46/49/26 60/64/26 
f 38/40/22 60/64/26 47/50/22 
f 39/51/18 47/50/22 61/65/22 
f 35/37/8 48/52/6 56/60/8 
f 29/31/6 49/53/10 48/52/6 
f 30/32/10 50/54/14 49/53/10 
f 31/33/14 51/55/18 50/54/14 
f 39/51/18 61/65/22 51/66/18 
s 1
f 1/1/1 52/56/31 57/61/33 
s 8
f 52/56/31 40/43/27 62/67/35 
f 40/43/27 53/57/32 62/67/35 
f 53/57/32 41/44/28 63/68/28 
f 41/44/28 54/58/24 63/68/28 
f 54/58/24 42/45/20 64/69/20 
f 42/45/20 55/59/16 64/69/20 
f 55/59/16 43/46/12 65/70/12 
f 43/46/12 56/60/8 65/70/12 
f 44/47/29 57/61/33 66/71/36 
f 44/47/29 66/71/36 58/62/34 
f 45/48/30 58/62/34 67/72/34 
f 45/48/30 67/72/34 59/63/30 
f 46/49/26 59/63/30 68/73/30 
f 46/49/26 68/73/30 60/64/26 
f 47/50/22 60/64/26 69/74/26 
f 47/50/22 69/74/26 61/65/22 
f 56/60/8 48/52/6 70/75/37 
f 48/52/6 49/53/10 71/76/38 
f 49/53/10 50/54/14 72/77/39 
f 50/54/14 51/55/18 73/78/40 
f 51/66/18 61/65/22 74/79/41 
f 57/61/33 52/56/31 75/80/42 
f 52/56/31 62/67/35 75/80/42 
f 62/67/35 53/57/32 76/81/32 
f 53/57/32 63/68/28 76/81/32 
f 63/68/28 54/58/24 77/82/24 
f 54/58/24 64/69/20 77/82/24 
f 64/69/20 55/59/16 78/83/16 
f 55/59/16 65/70/12 78/83/16 
f 65/70/12 56/60/8 79/84/43 
f 57/61/33 75/80/42 66/71/36 
f 58/62/34 66/71/36 80/85/36 
f 58/62/34 80/85/36 67/72/34 
f 59/63/30 67/72/34 81/86/34 
f 59/63/30 81/86/34 68/73/30 
f 60/64/26 68/73/30 82/87/30 
f 60/64/26 82/87/30 69/74/26 
f 61/65/22 69/74/26 83/88/44 
f 56/60/8 70/75/37 79/84/43 
f 48/52/6 71/76/38 70/75/37 
f 49/53/10 72/77/39 71/76/38 
f 50/54/14 73/78/40 72/77/39 
f 51/66/18 74/79/41 73/89/40 
f 61/65/22 83/88/44 74/79/41 
f 75/80/42 62/67/35 84/90/35 
f 62/67/35 76/81/32 84/90/35 
f 76/81/32 63/68/28 85/91/28 
f 63/68/28 77/82/24 85/91/28 
f 77/82/24 64/69/20 86/92/20 
f 64/69/20 78/83/16 86/92/20 
f 78/83/16 65/70/12 87/93/45 
f 65/70/12 79/84/43 87/93/45 
f 66/71/36 75/80/42 88/94/42 
f 66/71/36 88/94/42 80/85/36 
f 67/72/34 80/85/36 89/95/36 
f 67/72/34 89/95/36 81/86/34 
f 68/73/30 81/86/34 90/96/34 
f 68/73/30 90/96/34 82/87/30 
f 69/74/26 82/87/30 91/97/46 
f 69/74/26 91/97/46 83/88/44 
s 1
f 92/98/47 79/84/43 70/75/37 
f 92/98/47 70/75/37 71/76/38 
f 92/98/47 71/76/38 72/77/39 
f 92/98/47 72/77/39 73/78/40 
f 92/98/47 73/89/40 74/79/41 
f 92/98/47 74/79/41 83/88/44 
s 8
f 75/80/42 84/90/35 88/94/42 
f 84/90/35 76/81/32 93/99/32 
f 76/81/32 85/91/28 93/99/32 
f 85/91/28 77/82/24 94/100/24 
f 77/82/24 86/92/20 94/100/24 
f 86/92/20 78/83/16 95/101/48 
f 78/83/16 87/93/45 95/101/48 
s 1
f 92/98/47 87/93/45 79/84/43 
s 8
f 80/85/36 88/94/42 96/102/42 
f 80/85/36 96/102/42 89/95/36 
f 81/86/34 89/95/36 97/103/36 
f 81/86/34 97/103/36 90/96/34 
f 82/87/30 90/96/34 98/104/49 
f 82/87/30 98/104/49 91/97/46 
s 1
f 92/98/47 83/88/44 91/97/46 
s 8
f 88/94/42 84/90/35 99/105/35 
f 84/90/35 93/99/32 99/105/35 
f 93/99/32 85/91/28 100/106/28 
f 85/91/28 94/100/24 100/106/28 
f 94/100/24 86/92/20 101/107/50 
f 86/92/20 95/101/48 101/107/50 
s 1
f 92/98/47 95/101/48 87/93/45 
s 8
f 88/94/42 99/105/35 96/102/42 
f 89/95/36 96/102/42 102/108/42 
f 89/95/36 102/108/42 97/103/36 
f 90/96/34 97/103/36 103/109/51 
f 90/96/34 103/109/51 98/104/49 
s 1
f 92/98/47 91/97/46 98/104/49 
s 8
f 99/105/35 93/99/32 104/110/32 
f 93/99/32 100/106/28 104/110/32 
f 100/106/28 94/100/24 105/111/52 
f 94/100/24 101/107/50 105/111/52 
s 1
f 92/98/47 101/107/50 95/101/48 
s 8
f 96/102/42 99/105/35 106/112/35 
f 96/102/42 106/112/35 102/108/42 
f 97/103/36 102/108/42 107/113/53 
f 97/103/36 107/113/53 103/109/51 
s 1
f 92/98/47 98/104/49 103/109/51 
s 8
f 99/105/35 104/110/32 106/112/35 
f 104/110/32 100/106/28 108/114/54 
f 100/106/28 105/111/52 108/114/54 
s 1
f 92/98/47 105/111/52 101/107/50 
s 8
f 102/108/42 106/112/35 109/115/55 
f 102/108/42 109/115/55 107/113/53 
s 1
f 92/98/47 103/109/51 107/113/53 
s 8
f 106/112/35 104/110/32 110/116/56 
f 104/110/32 108/114/54 110/116/56 
s 1
f 92/98/47 108/114/54 105/111/52 
s 8
f 106/112/35 110/116/56 109/115/55 
s 1
f 92/98/47 107/113/53 109/115/55 
f 92/98/47 110/116/56 108/114/54 
f 92/98/47 109/115/55 110/116/56 
s 2
f 111/117/57 112/118/58 113/119/59 114/120/60 
s 128
f 113/120/59 115/117/61 116/118/62 114/119/60 
s 64
f 114/120/60 116/117/62 117/118/63 111/119/57 
s 32
f 111/120/57 117/117/63 118/118/64 112/119/58 
s 16
f 112/120/58 118/117/64 115/118/61 113/119/59 
s 4
f 115/120/61 118/117/64 117/118/63 116/119/62 
# 6 polygons - 216 triangles

